# xmcd CD database file
#
# Track frame offsets:
#	150
#	18577
#	41559
#	59050
#	83622
#	99601
#	114506
#	131382
#	147835
#	162706
#	178337
#	197843
#	217648
#	239179
#
# Disc length: 3438 seconds
#
# Revision: 10
# Processed by: cddbd v1.5.2PL0 Copyright (c) Steve Scherf et al.
# Submitted via: CDex 1.51
#
DISCID=ce0d6c0e
DTITLE=Daniel - Ao Vivo - CD 1
DYEAR=2001
DGENRE=Country
TTITLE0=Vou Levando A Vida
TTITLE1=Declaração De Amor
TTITLE2=Que Era Eu
TTITLE3=Estou Apaixonado (Estoy Enamorado)
TTITLE4=Só Da Você Na Minha Vida - Com Qual Carícia
TTITLE5=Alguém - Minha Estrela Perdida
TTITLE6=Vai Dar Samba
TTITLE7=A Gata Do Milênio
TTITLE8=Fricote
TTITLE9=A Loira Do Carro Branco
TTITLE10=A Jiripoca Vai Piar
TTITLE11=Fogo De Amor
TTITLE12=Seus Beijos
TTITLE13=Vinho Verde (Griechischer Wein)
EXTD=YEAR: 2001
EXTT0=
EXTT1=
EXTT2=
EXTT3=
EXTT4=
EXTT5=
EXTT6=
EXTT7=
EXTT8=
EXTT9=
EXTT10=
EXTT11=
EXTT12=
EXTT13=
PLAYORDER=
